/vscmnt/brussel_pixiu_data/_data_brussel/112/vsc11236/PredSimResults/SUBJ06mtu3D/weighted-trackIG/worker_01.mot
version=1
nRows=6
nColumns=50
inDegrees=yes
endheader
                time	         pelvis_tilt	         pelvis_list	     pelvis_rotation	           pelvis_tx	           pelvis_ty	           pelvis_tz	       hip_flexion_r	     hip_adduction_r	      hip_rotation_r	        knee_angle_r	       ankle_angle_r	         mtp_angle_r	       hip_flexion_l	     hip_adduction_l	      hip_rotation_l	        knee_angle_l	       ankle_angle_l	         mtp_angle_l	    lumbar_extension	      lumbar_bending	     lumbar_rotation	 ercspn_r/activation	 intobl_r/activation	 extobl_r/activation	    abd_r/activation	    add_r/activation	hamstrings_r/activation	bifemsh_r/activation	glut_max_r/activation	iliopsoas_r/activation	rect_fem_r/activation	  vasti_r/activation	gastroc_r/activation	 soleus_r/activation	tib_ant_r/activation	 ercspn_l/activation	 intobl_l/activation	 extobl_l/activation	    abd_l/activation	    add_l/activation	hamstrings_l/activation	bifemsh_l/activation	glut_max_l/activation	iliopsoas_l/activation	rect_fem_l/activation	  vasti_l/activation	gastroc_l/activation	 soleus_l/activation	tib_ant_l/activation	
          1.24386339	         -7.67630133	         -4.50385181	          8.95553376	          1.45532017	          0.92625779	         -0.01493375	         31.27440530	          0.65534636	         -5.82591427	         -1.25029135	          6.76800728	          0.21166231	        -10.95635547	         -4.79403857	          6.92846887	         -5.97036304	         10.10011372	         28.95149693	         -1.98606533	          2.54330400	         -3.38446460	          0.10981053	          0.17782960	          0.03161009	          0.00999999	          0.08028806	          0.11278822	          0.24519489	          0.00999999	          0.11578348	          0.00999999	          0.00999999	          0.02194214	          0.00999999	          0.28129386	          0.05791928	          0.00999999	          0.00999999	          0.05987392	          0.00999999	          0.01823648	          0.14562852	          0.04572152	          0.43659902	          0.01207309	          0.00999999	          0.35744956	          0.32749233	          0.02024739	
          1.25630203	         -7.77393852	         -4.44748209	          9.01661141	          1.47254697	          0.92413583	         -0.01472002	         31.37935195	          0.75397377	         -5.53589611	         -2.91981927	          6.34885459	          0.21584417	        -11.20392840	         -4.77877158	          6.57044848	         -7.28740078	          9.46150443	         30.92644708	         -1.71545630	          2.89095227	         -3.54970166	          0.09095467	          0.15258426	          0.02618223	          0.00999999	          0.11497388	          0.09887619	          0.20309181	          0.05032189	          0.09590199	          0.00999999	          0.00999999	          0.02861511	          0.01776621	          0.28954544	          0.09068121	          0.00999999	          0.00999999	          0.04959280	          0.02944424	          0.01850858	          0.12062225	          0.03787056	          0.43996005	          0.00999999	          0.00999999	          0.32898119	          0.30897657	          0.01677066	
          1.26874066	         -7.85112701	         -4.38637424	          9.02178698	          1.49018087	          0.92224057	         -0.01441953	         31.31219646	          0.85237514	         -5.23864909	         -4.54046254	          5.88129889	          0.19919204	        -11.34901939	         -4.74694892	          6.18046919	         -8.86464274	          8.67055073	         32.94365517	         -1.42450714	          3.24651312	         -3.69019018	          0.07569968	          0.12638361	          0.02168641	          0.05332967	          0.09523141	          0.08995065	          0.16821837	          0.09640870	          0.07943440	          0.00999999	          0.00999999	          0.02370153	          0.01471552	          0.34556665	          0.10058835	          0.00999999	          0.00999999	          0.04107709	          0.02438829	          0.01738729	          0.09990988	          0.03136770	          0.42812836	          0.01000001	          0.02124592	          0.28464957	          0.28593991	          0.01389092	
          1.28117929	         -7.91023323	         -4.31680574	          8.97018392	          1.50796756	          0.92079936	         -0.01400930	         31.09816906	          0.97086687	         -4.98491165	         -5.90110443	          5.24336775	          0.17699919	        -11.30519027	         -4.68821183	          5.76427496	        -10.80800806	          7.67553478	         34.98282041	         -1.14070299	          3.60183497	         -3.80061539	          0.08667532	          0.10468193	          0.01796258	          0.11332858	          0.12412961	          0.07753840	          0.13933314	          0.14409967	          0.06579450	          0.00999999	          0.00999999	          0.01963168	          0.01218868	          0.38076156	          0.13524556	          0.00999999	          0.00999999	          0.03402363	          0.03574231	          0.02088259	          0.08275408	          0.02598147	          0.41662901	          0.01207310	          0.01759773	          0.23577162	          0.24483073	          0.01150567	
          1.29361793	         -7.95047304	         -4.24173553	          8.86540684	          1.52569113	          0.91997525	         -0.01350739	         30.80867550	          1.11104347	         -4.76628485	         -7.17910184	          4.73736828	          0.14489167	        -10.98523921	         -4.59841289	          5.31966889	        -13.24364074	          6.47383225	         36.94044496	         -0.88247170	          3.96136878	         -3.87764809	          0.08440978	          0.08670672	          0.01487818	          0.15369709	          0.15094972	          0.06557710	          0.11540787	          0.17511033	          0.05449675	          0.00999999	          0.01247081	          0.01626067	          0.01009573	          0.40528003	          0.16753843	          0.00999999	          0.00999999	          0.02818134	          0.05646728	          0.01957114	          0.06854415	          0.02152012	          0.39019727	          0.01000000	          0.01457597	          0.19528664	          0.20279018	          0.00999999	
          1.30605656	         -7.97113886	         -4.16126538	          8.70916566	          1.54318350	          0.91983559	         -0.01293442	         30.48170852	          1.26545318	         -4.57453870	         -8.44289397	          4.45033811	          0.12126504	        -10.32666632	         -4.47565146	          4.83885311	        -16.25742027	          5.08774047	         38.60458179	         -0.66293532	          4.32579294	         -3.91827046	          0.08026196	          0.07181807	          0.01232340	          0.17242171	          0.13766042	          0.06303525	          0.09559087	          0.18118877	          0.04513897	          0.00999999	          0.07348150	          0.01346850	          0.00999999	          0.41317048	          0.18422213	          0.00999999	          0.00999999	          0.02334225	          0.08279898	          0.02520185	          0.05677425	          0.01782484	          0.34299559	          0.00999999	          0.01207309	          0.16175344	          0.16796853	          0.00999999	
